<?xml version="1.0" encoding="utf-8"?>
<!-- Generator: Adobe Illustrator 24.1.1, SVG Export Plug-In . SVG Version: 6.00 Build 0)  -->
<svg version="1.1" id="Layer_1" xmlns="http://www.w3.org/2000/svg" xmlns:xlink="http://www.w3.org/1999/xlink" x="0px" y="0px"
	 viewBox="0 0 58 15" enable-background="new 0 0 58 15" xml:space="preserve">
<g>
	<path fill="#FFFFFF" d="M12,7.5001431c0,3.3137283-2.6872177,5.9999752-6.0000248,5.9999752
		C2.6857619,13.5001183,0,10.8138714,0,7.5001431c0-3.3139768,2.6857619-6.0002613,5.9999752-6.0002613
		C9.3127823,1.4998816,12,4.1861663,12,7.5001431z"/>
	<g>
		<path fill="#606060" d="M5.9999752,13.1017561c-3.0891404,0-5.6023469-2.5129576-5.6023469-5.601613
			c0-3.08919,2.5132065-5.6021609,5.6023469-5.6021609c3.0891905,0,5.6014261,2.5129709,5.6014261,5.6021609
			C11.6014013,10.5887985,9.0891657,13.1017561,5.9999752,13.1017561z M5.9999752,2.1118393
			c-2.9713697,0-5.3882542,2.4168844-5.3882542,5.3883038c0,2.9708843,2.4168844,5.3877687,5.3882542,5.3877687
			c2.9714193,0,5.3878183-2.4168844,5.3878183-5.3877687C11.3877935,4.5287237,8.9713945,2.1118393,5.9999752,2.1118393z"/>
	</g>
	<path fill="#606060" d="M9.6446333,9.9201021c-0.22791,0-0.3423576-0.131588-0.3423576-0.3950377V9.0330181l0,0v-0.41432
		c0-0.5247097-0.2593918-0.9245276-0.7723875-1.1910648c0.5129957-0.2536287,0.7723875-0.6532102,0.7723875-1.1893468V6.2037182
		c0-0.382391-0.1611652-0.7147284-0.4796352-0.9867306c-0.314723-0.2681928-0.6980476-0.4041128-1.1424427-0.4041128H6.5297136
		V4.0741215H6.2536659v0.7387533H5.7682552V4.0741215H5.4931288v0.7387533h-1.150969
		c-0.4429266,0-0.8272221,0.13592-1.1418958,0.4041128C2.8817437,5.4889898,2.7205667,5.8213272,2.7205667,6.2037182v0.0345683
		c0,0.5361366,0.2594051,0.9357181,0.77245,1.1893468c-0.5130448,0.2665372-0.77245,0.6663551-0.77245,1.1910648v0.1775713
		c0,0.382391,0.1611769,0.7147408,0.4796972,0.9862947c0.3146737,0.2684288,0.6989691,0.404561,1.1418958,0.404561h1.1490779
		v0.738554h0.2770176v-0.738554h0.4854107v0.738554h0.2760477v-0.738554h0.5792937h0.0076184h0.2694125v-0.395524H7.1166258
		v-2.162509h0.5635719c0.1201606,0,0.2188859,0.0410037,0.3032465,0.1254263
		c0.0829535,0.0838752,0.1244555,0.182837,0.1244555,0.3022633V9.165329c0,0.6686954,0.3399553,1.0217962,0.9845896,1.0217962
		l0.5802641-0.0012321V9.9201021H9.6446333z M4.9062166,9.786622H4.3421597c-0.1182446,0-0.2183385-0.0412655-0.3022637-0.1256752
		C3.9554734,9.5768232,3.9144571,9.477849,3.9144571,9.3589201V8.0567818c0-0.1194263,0.0410163-0.2183881,0.1254389-0.3022633
		c0.0839252-0.0844226,0.1840191-0.1254263,0.3022637-0.1254263h0.5640569V9.786622z M4.9062166,7.2280912H4.3421597
		c-0.1182446,0-0.2174182-0.0410037-0.3022637-0.1246419C3.9564443,7.0187902,3.9144571,6.9196291,3.9144571,6.8006387V5.6410799
		c0-0.1191902,0.0410163-0.218102,0.1254389-0.3022757c0.0839252-0.0841737,0.1840191-0.1251898,0.3022637-0.1251898h0.5640569
		V7.2280912z M5.7682552,9.7916012H5.4931288V5.2081494h0.2751265V9.7916012z M6.5297136,9.7916012H6.2536659V5.2081494h0.2760477
		V9.7916012z M8.1078997,6.8006387c0,0.1189904-0.041502,0.2181516-0.1244555,0.3023252
		c-0.0853438,0.0841236-0.184505,0.1251273-0.3032465,0.1251273H7.1166258V5.2136145h0.5635719
		c0.1201606,0,0.2188859,0.0410161,0.3032465,0.1251898c0.0829535,0.0841737,0.1244555,0.1830854,0.1244555,0.3022757V6.8006387z"/>
</g>
<g>
	<path fill="#FFFFFF" d="M16.3652344,8.0332031c0,0.1015625-0.012207,0.1962891-0.0361328,0.2841797
		c-0.0244141,0.0878906-0.0585938,0.1679688-0.1035156,0.2392578s-0.0996094,0.1347656-0.1640625,0.1904297
		s-0.137207,0.1025391-0.21875,0.1416016c-0.081543,0.0380859-0.1694336,0.0673828-0.2646484,0.0869141
		c-0.0947266,0.0195313-0.2045898,0.0292969-0.3300781,0.0292969h-0.8994141c-0.0322266,0-0.0654297-0.0117188-0.0996094-0.0361328
		s-0.0507813-0.0683594-0.0507813-0.1328125V5.6992188c0-0.0644531,0.0166016-0.1083984,0.0507813-0.1328125
		s0.0673828-0.0361328,0.0996094-0.0361328h0.7460938c0.2026367,0,0.3662109,0.0205078,0.4916992,0.0615234
		s0.2285156,0.0996094,0.3100586,0.1757813s0.1425781,0.1679688,0.1826172,0.2763672
		c0.0405273,0.1083984,0.0605469,0.2294922,0.0605469,0.3613281c0,0.0830078-0.0092773,0.1611328-0.0283203,0.2363281
		c-0.0185547,0.0751953-0.046875,0.1455078-0.0844727,0.2099609s-0.0844727,0.1220703-0.1411133,0.1738281
		c-0.0561523,0.0527344-0.1230469,0.0966797-0.2001953,0.1318359c0.0932617,0.0185547,0.1811523,0.0517578,0.2636719,0.1005859
		c0.0820313,0.0498047,0.1542969,0.1113281,0.2158203,0.1865234c0.0620117,0.0751953,0.1108398,0.1630859,0.1464844,0.2626953
		C16.347168,7.8056641,16.3652344,7.9150391,16.3652344,8.0332031z M15.7905273,6.4267578
		c0-0.0908203-0.0126953-0.1738281-0.0375977-0.2480469s-0.0649414-0.1376953-0.1196289-0.1904297
		s-0.1254883-0.09375-0.2133789-0.1230469c-0.0878906-0.0283203-0.2050781-0.0429688-0.3515625-0.0429688h-0.5429688v1.2460938
		h0.5966797c0.1303711,0,0.2363281-0.0166016,0.3164063-0.0517578C15.5195313,6.9814453,15.5854492,6.9345703,15.6376953,6.875
		c0.0517578-0.0585938,0.090332-0.1269531,0.1152344-0.2050781S15.7905273,6.5107422,15.7905273,6.4267578z M16.0161133,8.0595703
		c0-0.1142578-0.0185547-0.2158203-0.0551758-0.3037109c-0.0366211-0.0869141-0.090332-0.1611328-0.1611328-0.2197266
		c-0.0708008-0.0595703-0.1577148-0.1035156-0.2617188-0.1347656c-0.1040039-0.0302734-0.2329102-0.0449219-0.3867188-0.0449219
		h-0.6259766v1.3554688h0.7578125c0.1108398,0,0.2089844-0.0136719,0.2939453-0.0410156
		c0.0849609-0.0283203,0.1601563-0.0693359,0.2255859-0.1240234s0.1171875-0.1220703,0.1557617-0.2041016
		C15.9970703,8.2617188,16.0161133,8.1669922,16.0161133,8.0595703z"/>
	<path fill="#FFFFFF" d="M17.5126953,8.9511719c0,0.0107422-0.0024414,0.0205078-0.0078125,0.0292969
		c-0.0053711,0.0097656-0.0141602,0.0166016-0.0268555,0.0214844c-0.0126953,0.0058594-0.0292969,0.0107422-0.0498047,0.0136719
		c-0.0205078,0.0039063-0.046875,0.0058594-0.0791016,0.0058594c-0.0302734,0-0.0561523-0.0019531-0.0776367-0.0058594
		C17.25,9.0126953,17.2329102,9.0078125,17.2202148,9.0019531c-0.0126953-0.0048828-0.0214844-0.0117188-0.0268555-0.0214844
		c-0.0053711-0.0087891-0.0078125-0.0185547-0.0078125-0.0292969V5.5839844c0-0.0107422,0.0029297-0.0205078,0.0092773-0.0302734
		c0.0063477-0.0087891,0.0161133-0.015625,0.0292969-0.0214844c0.0136719-0.0048828,0.0307617-0.0097656,0.0512695-0.0126953
		c0.0205078-0.0039063,0.0449219-0.0058594,0.0737305-0.0058594c0.0322266,0,0.0585938,0.0019531,0.0791016,0.0058594
		c0.0205078,0.0029297,0.0371094,0.0078125,0.0498047,0.0126953c0.0126953,0.0058594,0.0214844,0.0126953,0.0268555,0.0214844
		c0.0053711,0.0097656,0.0078125,0.0195313,0.0078125,0.0302734V8.9511719z"/>
	<path fill="#FFFFFF" d="M20.6777344,5.6806641c0,0.0234375-0.0019531,0.0439453-0.0058594,0.0615234
		c-0.003418,0.0175781-0.0087891,0.0322266-0.015625,0.0439453c-0.0073242,0.0117188-0.0166016,0.0205078-0.0273438,0.0273438
		c-0.0107422,0.0058594-0.0219727,0.0087891-0.034668,0.0087891h-1.0366211v3.1289063
		c0,0.0107422-0.0029297,0.0205078-0.0078125,0.0292969c-0.0058594,0.0097656-0.0146484,0.0166016-0.0273438,0.0214844
		c-0.012207,0.0058594-0.0292969,0.0107422-0.0507813,0.0136719c-0.0214844,0.0039063-0.0473633,0.0058594-0.078125,0.0058594
		c-0.0302734,0-0.0561523-0.0019531-0.0776367-0.0058594c-0.0214844-0.0029297-0.0385742-0.0078125-0.0512695-0.0136719
		c-0.012207-0.0048828-0.0214844-0.0117188-0.0263672-0.0214844c-0.0058594-0.0087891-0.0083008-0.0185547-0.0083008-0.0292969
		V5.8222656h-1.0366211c-0.0141602,0-0.0263672-0.0029297-0.0361328-0.0087891
		c-0.0097656-0.0068359-0.0185547-0.015625-0.0253906-0.0273438c-0.0073242-0.0117188-0.0126953-0.0263672-0.0166016-0.0439453
		c-0.003418-0.0175781-0.0048828-0.0380859-0.0048828-0.0615234c0-0.0253906,0.0014648-0.046875,0.0048828-0.0664063
		c0.0039063-0.0185547,0.0092773-0.0341797,0.0166016-0.046875c0.0068359-0.0126953,0.015625-0.0214844,0.0253906-0.0283203
		c0.0097656-0.0058594,0.0219727-0.0087891,0.0361328-0.0087891h2.4008789c0.0126953,0,0.0239258,0.0029297,0.034668,0.0087891
		c0.0107422,0.0068359,0.0200195,0.015625,0.0273438,0.0283203c0.0068359,0.0126953,0.012207,0.0283203,0.015625,0.046875
		C20.6757813,5.6337891,20.6777344,5.6552734,20.6777344,5.6806641z"/>
	<path fill="#FFFFFF" d="M23.4418945,8.5322266c0,0.0195313-0.0009766,0.0380859-0.0029297,0.0537109
		C23.4375,8.6025391,23.4345703,8.6162109,23.4311523,8.6289063s-0.0083008,0.0244141-0.0146484,0.0351563
		s-0.0180664,0.0244141-0.0351563,0.0419922C23.3642578,8.7226563,23.3271484,8.75,23.2700195,8.7890625
		c-0.0571289,0.0380859-0.1293945,0.0761719-0.2163086,0.1142578C22.9667969,8.9404297,22.8671875,8.9726563,22.7543945,9
		c-0.112793,0.0263672-0.2373047,0.0400391-0.3730469,0.0400391c-0.21875,0-0.4165039-0.0380859-0.59375-0.1142578
		s-0.328125-0.1875-0.4526367-0.3339844c-0.1245117-0.1474609-0.2202148-0.328125-0.2871094-0.5429688
		c-0.0673828-0.2148438-0.1010742-0.4599609-0.1010742-0.7353516c0-0.2832031,0.0361328-0.5371094,0.1074219-0.7617188
		c0.0717773-0.2246094,0.1723633-0.4150391,0.3022461-0.5722656c0.1298828-0.15625,0.2856445-0.2763672,0.4672852-0.359375
		s0.3828125-0.125,0.6030273-0.125c0.1040039,0,0.2045898,0.0097656,0.3022461,0.0292969s0.1875,0.0449219,0.2695313,0.0751953
		c0.0825195,0.0302734,0.15625,0.0654297,0.2216797,0.1044922c0.0654297,0.0400391,0.1103516,0.0712891,0.1342773,0.0957031
		c0.0244141,0.0244141,0.0395508,0.0419922,0.0458984,0.0527344S23.4116211,5.875,23.4150391,5.8886719
		s0.0063477,0.0283203,0.0083008,0.0458984c0.0014648,0.0166016,0.0024414,0.0361328,0.0024414,0.0576172
		c0,0.0244141-0.0014648,0.046875-0.0039063,0.0654297c-0.0029297,0.0185547-0.0073242,0.0351563-0.0136719,0.0488281
		c-0.0063477,0.0126953-0.0136719,0.0234375-0.0229492,0.0302734c-0.0087891,0.0078125-0.0195313,0.0107422-0.0322266,0.0107422
		c-0.0249023,0-0.0600586-0.0185547-0.105957-0.0546875c-0.0454102-0.0371094-0.1054688-0.0771484-0.1796875-0.1220703
		s-0.1655273-0.0859375-0.2729492-0.1220703c-0.1074219-0.0371094-0.2353516-0.0556641-0.3837891-0.0556641
		c-0.1630859,0-0.3125,0.0332031-0.4482422,0.0986328c-0.1362305,0.0654297-0.2529297,0.1611328-0.3505859,0.2880859
		s-0.1738281,0.2841797-0.2285156,0.4697266c-0.0546875,0.1865234-0.0820313,0.4003906-0.0820313,0.6425781
		c0,0.2304688,0.0253906,0.4355469,0.0751953,0.6142578c0.050293,0.1796875,0.1230469,0.3300781,0.2177734,0.453125
		c0.0947266,0.1220703,0.2119141,0.2158203,0.3515625,0.2802734s0.2983398,0.0966797,0.4755859,0.0966797
		c0.1450195,0,0.2714844-0.0185547,0.3798828-0.0546875c0.1083984-0.0371094,0.2011719-0.0771484,0.2783203-0.1220703
		C23.15625,8.5146484,23.2192383,8.4736328,23.2685547,8.4375c0.0493164-0.0371094,0.0874023-0.0556641,0.1142578-0.0556641
		c0.0107422,0,0.0195313,0.0029297,0.0268555,0.0068359c0.0073242,0.0048828,0.0131836,0.0126953,0.0175781,0.0244141
		s0.0078125,0.0273438,0.0107422,0.046875C23.4404297,8.4794922,23.4418945,8.5039063,23.4418945,8.5322266z"/>
	<path fill="#FFFFFF" d="M26.8964844,7.2275391c0,0.2773438-0.0317383,0.5283203-0.0952148,0.7529297
		s-0.1591797,0.4160156-0.2861328,0.5751953c-0.1269531,0.1582031-0.2871094,0.2802734-0.4804688,0.3662109
		s-0.4189453,0.1289063-0.6767578,0.1289063s-0.4794922-0.0410156-0.6650391-0.1220703
		c-0.1850586-0.0820313-0.3374023-0.1982422-0.456543-0.3496094s-0.206543-0.3359375-0.2631836-0.5546875
		c-0.0561523-0.2177734-0.0844727-0.4638672-0.0844727-0.7382813c0-0.2714844,0.03125-0.5185547,0.0942383-0.7412109
		c0.0625-0.2216797,0.1577148-0.4111328,0.2856445-0.5673828c0.1279297-0.1572266,0.2885742-0.2783203,0.480957-0.3642578
		s0.418457-0.1289063,0.6777344-0.1289063c0.2529297,0,0.4711914,0.0400391,0.6552734,0.1210938
		c0.1845703,0.0800781,0.3374023,0.1953125,0.4580078,0.3457031c0.1210938,0.1503906,0.2104492,0.3330078,0.2685547,0.5478516
		S26.8964844,6.9570313,26.8964844,7.2275391z M26.5473633,7.2568359c0-0.2060547-0.019043-0.3984375-0.0576172-0.5791016
		c-0.0385742-0.1796875-0.1020508-0.3359375-0.190918-0.4697266c-0.0883789-0.1328125-0.2060547-0.2382813-0.3530273-0.3144531
		s-0.3286133-0.1142578-0.5449219-0.1142578c-0.2148438,0-0.3964844,0.0400391-0.5439453,0.1201172
		c-0.1479492,0.0791016-0.2675781,0.1865234-0.3598633,0.3203125c-0.0922852,0.1347656-0.1586914,0.2910156-0.1987305,0.4707031
		c-0.0405273,0.1787109-0.0605469,0.3671875-0.0605469,0.5664063c0,0.2109375,0.0185547,0.4082031,0.0551758,0.5898438
		s0.0986328,0.3388672,0.1865234,0.4736328c0.0878906,0.1337891,0.2050781,0.2392578,0.3520508,0.3154297
		C24.9780273,8.7119141,25.1616211,8.75,25.3818359,8.75c0.2182617,0,0.4018555-0.0410156,0.550293-0.1220703
		c0.1489258-0.0820313,0.2685547-0.1904297,0.3603516-0.328125c0.0908203-0.1367188,0.15625-0.2949219,0.1958008-0.4746094
		C26.527832,7.6445313,26.5473633,7.4550781,26.5473633,7.2568359z"/>
	<path fill="#FFFFFF" d="M28.0712891,8.9511719c0,0.0107422-0.0024414,0.0205078-0.0078125,0.0292969
		c-0.0053711,0.0097656-0.0141602,0.0166016-0.0268555,0.0214844c-0.0126953,0.0058594-0.0292969,0.0107422-0.0498047,0.0136719
		c-0.0205078,0.0039063-0.046875,0.0058594-0.0791016,0.0058594c-0.0302734,0-0.0561523-0.0019531-0.0776367-0.0058594
		c-0.0214844-0.0029297-0.0385742-0.0078125-0.0512695-0.0136719c-0.0126953-0.0048828-0.0214844-0.0117188-0.0268555-0.0214844
		c-0.0053711-0.0087891-0.0078125-0.0185547-0.0078125-0.0292969V5.5839844c0-0.0107422,0.0029297-0.0205078,0.0092773-0.0302734
		c0.0063477-0.0087891,0.0161133-0.015625,0.0292969-0.0214844c0.0136719-0.0048828,0.0307617-0.0097656,0.0512695-0.0126953
		c0.0205078-0.0039063,0.0449219-0.0058594,0.0737305-0.0058594c0.0322266,0,0.0585938,0.0019531,0.0791016,0.0058594
		c0.0205078,0.0029297,0.0371094,0.0078125,0.0498047,0.0126953c0.0126953,0.0058594,0.0214844,0.0126953,0.0268555,0.0214844
		c0.0053711,0.0097656,0.0078125,0.0195313,0.0078125,0.0302734V8.9511719z"/>
	<path fill="#FFFFFF" d="M31.6254883,8.8466797c0,0.0322266-0.0048828,0.0585938-0.0146484,0.0800781
		s-0.0224609,0.0390625-0.0375977,0.0527344s-0.0322266,0.0224609-0.0512695,0.0283203
		C31.503418,9.0126953,31.4858398,9.015625,31.4697266,9.015625h-0.0673828c-0.0356445,0-0.0683594-0.0039063-0.0976563-0.0136719
		c-0.0297852-0.0087891-0.0581055-0.0244141-0.0859375-0.046875s-0.0556641-0.0517578-0.0834961-0.0898438
		c-0.027832-0.0371094-0.0585938-0.0859375-0.0922852-0.1445313l-1.2246094-2.1699219
		c-0.0610352-0.1054688-0.1225586-0.2148438-0.184082-0.3261719c-0.0620117-0.1123047-0.1206055-0.2207031-0.1762695-0.3271484
		h-0.0024414c0.0019531,0.1308594,0.0024414,0.2646484,0.0024414,0.4023438c0,0.1367188,0,0.2705078,0,0.4013672v2.25
		c0,0.0107422-0.0024414,0.0205078-0.0078125,0.0292969c-0.0053711,0.0097656-0.0141602,0.0166016-0.0268555,0.0214844
		c-0.0126953,0.0058594-0.0292969,0.0107422-0.0498047,0.0136719c-0.0205078,0.0039063-0.046875,0.0058594-0.0791016,0.0058594
		c-0.0302734,0-0.0561523-0.0019531-0.0776367-0.0058594c-0.0214844-0.0029297-0.0385742-0.0078125-0.0512695-0.0136719
		c-0.0126953-0.0048828-0.0214844-0.0117188-0.0268555-0.0214844c-0.0053711-0.0087891-0.0078125-0.0185547-0.0078125-0.0292969
		V5.6992188c0-0.0644531,0.0166016-0.1083984,0.0507813-0.1328125s0.0673828-0.0361328,0.0996094-0.0361328h0.1337891
		c0.0429688,0,0.0791016,0.0029297,0.1074219,0.0107422c0.0288086,0.0068359,0.0546875,0.0185547,0.078125,0.0361328
		c0.0234375,0.0166016,0.0458984,0.0410156,0.0683594,0.0722656s0.046875,0.0712891,0.0742188,0.1191406l0.9370117,1.6630859
		c0.059082,0.1035156,0.1152344,0.203125,0.1679688,0.2988281s0.1040039,0.1904297,0.1542969,0.2822266
		c0.050293,0.0927734,0.0996094,0.1835938,0.1489258,0.2724609C31.2006836,8.375,31.2495117,8.4648438,31.2978516,8.5566406
		h0.0029297C31.2988281,8.40625,31.2978516,8.25,31.2978516,8.0869141s0-0.3203125,0-0.4707031V5.5947266
		c0-0.0107422,0.0029297-0.0205078,0.0078125-0.0302734c0.0058594-0.0087891,0.0146484-0.015625,0.0273438-0.0224609
		c0.012207-0.0058594,0.0288086-0.0107422,0.0493164-0.0136719c0.0205078-0.0019531,0.0473633-0.0039063,0.0795898-0.0039063
		c0.0283203,0,0.0537109,0.0019531,0.0751953,0.0039063c0.0214844,0.0029297,0.0380859,0.0078125,0.0507813,0.0136719
		c0.0126953,0.0068359,0.0219727,0.0136719,0.0283203,0.0224609c0.0063477,0.0097656,0.0092773,0.0195313,0.0092773,0.0302734
		V8.8466797z"/>
	<path fill="#FFFFFF" d="M37.4345703,8.9462891c0,0.0126953-0.0019531,0.0234375-0.0063477,0.0322266
		s-0.0131836,0.0166016-0.0258789,0.0224609c-0.012207,0.0068359-0.0297852,0.0117188-0.0522461,0.0146484
		c-0.0224609,0.0039063-0.050293,0.0058594-0.0844727,0.0058594c-0.0302734,0-0.0561523-0.0019531-0.0766602-0.0039063
		c-0.0205078-0.0029297-0.0380859-0.0087891-0.0522461-0.0166016S37.1108398,8.9824219,37.1015625,8.96875
		c-0.0087891-0.0136719-0.0166016-0.03125-0.0239258-0.0527344l-0.324707-0.8427734
		c-0.0380859-0.0947266-0.078125-0.1845703-0.1210938-0.2685547s-0.0947266-0.1572266-0.1557617-0.21875
		s-0.1342773-0.1103516-0.2202148-0.1464844s-0.1889648-0.0537109-0.3085938-0.0537109h-0.3603516v1.5654297
		c0,0.0107422-0.0024414,0.0205078-0.0078125,0.0292969c-0.0053711,0.0097656-0.0141602,0.0166016-0.0268555,0.0214844
		c-0.0126953,0.0058594-0.0292969,0.0107422-0.0498047,0.0136719c-0.0205078,0.0039063-0.046875,0.0058594-0.0791016,0.0058594
		c-0.0302734,0-0.0561523-0.0019531-0.0776367-0.0058594c-0.0214844-0.0029297-0.0385742-0.0078125-0.0512695-0.0136719
		c-0.0126953-0.0048828-0.0214844-0.0117188-0.0268555-0.0214844c-0.0053711-0.0087891-0.0078125-0.0185547-0.0078125-0.0292969
		V5.6992188c0-0.0644531,0.0166016-0.1083984,0.0507813-0.1328125s0.0673828-0.0361328,0.0996094-0.0361328H36.0625
		c0.0859375,0,0.1572266,0.0019531,0.2133789,0.0068359c0.0566406,0.0039063,0.1079102,0.0097656,0.1547852,0.0166016
		c0.1323242,0.0234375,0.2475586,0.0615234,0.3461914,0.1132813s0.1801758,0.1162109,0.2446289,0.1923828
		s0.1123047,0.1621094,0.1435547,0.2578125s0.046875,0.1992188,0.046875,0.3095703
		c0,0.1152344-0.0161133,0.2177734-0.0483398,0.3076172c-0.0322266,0.0908203-0.0776367,0.1699219-0.137207,0.2392578
		c-0.0585938,0.0683594-0.1293945,0.1279297-0.2119141,0.1787109c-0.0825195,0.0498047-0.1728516,0.0917969-0.2714844,0.1259766
		c0.0595703,0.0263672,0.112793,0.0595703,0.1601563,0.0996094c0.0473633,0.0390625,0.0913086,0.0869141,0.1313477,0.1416016
		C36.875,7.5751953,36.9130859,7.6396484,36.9487305,7.7119141s0.0717773,0.1533203,0.1074219,0.2431641l0.324707,0.8105469
		c0.0234375,0.0634766,0.0380859,0.1064453,0.0444336,0.1289063C37.4316406,8.9179688,37.4345703,8.9355469,37.4345703,8.9462891z
		 M36.8574219,6.4619141c0-0.1484375-0.0332031-0.2744141-0.0996094-0.3769531
		c-0.065918-0.1035156-0.1767578-0.1767578-0.3330078-0.2216797c-0.0517578-0.0146484-0.1079102-0.0244141-0.1689453-0.03125
		c-0.0610352-0.0058594-0.140625-0.0097656-0.2392578-0.0097656h-0.4296875v1.2763672h0.5
		c0.1337891,0,0.2495117-0.0166016,0.3461914-0.0498047s0.1767578-0.078125,0.2402344-0.1357422
		s0.1103516-0.1240234,0.1396484-0.2011719C36.8427734,6.6347656,36.8574219,6.5517578,36.8574219,6.4619141z"/>
	<path fill="#FFFFFF" d="M40.9726563,7.2275391c0,0.2773438-0.0317383,0.5283203-0.0952148,0.7529297
		s-0.1591797,0.4160156-0.2861328,0.5751953c-0.1269531,0.1582031-0.2871094,0.2802734-0.4804688,0.3662109
		s-0.4189453,0.1289063-0.6767578,0.1289063s-0.4794922-0.0410156-0.6650391-0.1220703
		c-0.1850586-0.0820313-0.3374023-0.1982422-0.456543-0.3496094s-0.206543-0.3359375-0.2631836-0.5546875
		c-0.0561523-0.2177734-0.0844727-0.4638672-0.0844727-0.7382813c0-0.2714844,0.03125-0.5185547,0.0942383-0.7412109
		c0.0625-0.2216797,0.1577148-0.4111328,0.2856445-0.5673828c0.1279297-0.1572266,0.2885742-0.2783203,0.480957-0.3642578
		s0.418457-0.1289063,0.6777344-0.1289063c0.2529297,0,0.4711914,0.0400391,0.6552734,0.1210938
		c0.1845703,0.0800781,0.3374023,0.1953125,0.4580078,0.3457031c0.1210938,0.1503906,0.2104492,0.3330078,0.2685547,0.5478516
		S40.9726563,6.9570313,40.9726563,7.2275391z M40.6235352,7.2568359c0-0.2060547-0.019043-0.3984375-0.0576172-0.5791016
		C40.5273438,6.4980469,40.4638672,6.3417969,40.375,6.2080078c-0.0883789-0.1328125-0.2060547-0.2382813-0.3530273-0.3144531
		s-0.3286133-0.1142578-0.5449219-0.1142578c-0.2148438,0-0.3964844,0.0400391-0.5439453,0.1201172
		c-0.1479492,0.0791016-0.2675781,0.1865234-0.3598633,0.3203125c-0.0922852,0.1347656-0.1586914,0.2910156-0.1987305,0.4707031
		c-0.0405273,0.1787109-0.0605469,0.3671875-0.0605469,0.5664063c0,0.2109375,0.0185547,0.4082031,0.0551758,0.5898438
		s0.0986328,0.3388672,0.1865234,0.4736328c0.0878906,0.1337891,0.2050781,0.2392578,0.3520508,0.3154297
		C39.0541992,8.7119141,39.237793,8.75,39.4580078,8.75c0.2182617,0,0.4018555-0.0410156,0.550293-0.1220703
		c0.1489258-0.0820313,0.2685547-0.1904297,0.3603516-0.328125c0.0908203-0.1367188,0.15625-0.2949219,0.1958008-0.4746094
		C40.6040039,7.6445313,40.6235352,7.4550781,40.6235352,7.2568359z"/>
	<path fill="#FFFFFF" d="M45.4506836,8.9511719c0,0.0107422-0.0029297,0.0205078-0.0083008,0.0292969
		c-0.0053711,0.0097656-0.0146484,0.0166016-0.0283203,0.0214844c-0.0131836,0.0058594-0.0302734,0.0107422-0.0507813,0.0136719
		c-0.0205078,0.0039063-0.0473633,0.0058594-0.0795898,0.0058594c-0.0283203,0-0.0537109-0.0019531-0.0751953-0.0058594
		c-0.0214844-0.0029297-0.0380859-0.0078125-0.0507813-0.0136719c-0.0126953-0.0048828-0.0214844-0.0117188-0.0268555-0.0214844
		c-0.0053711-0.0087891-0.0083008-0.0185547-0.0083008-0.0292969V5.8173828h-0.0048828l-1.3671875,3.1523438
		c-0.003418,0.0078125-0.0087891,0.0146484-0.0161133,0.0205078c-0.0073242,0.0068359-0.0170898,0.0117188-0.0297852,0.0166016
		c-0.012207,0.0039063-0.0268555,0.0078125-0.0439453,0.0107422c-0.0170898,0.0019531-0.0371094,0.0039063-0.0605469,0.0039063
		c-0.0249023,0-0.0463867-0.0019531-0.0644531-0.0039063c-0.0180664-0.0029297-0.0327148-0.0068359-0.0444336-0.0107422
		c-0.0117188-0.0048828-0.0209961-0.0097656-0.027832-0.0166016c-0.0073242-0.0058594-0.0117188-0.0126953-0.0136719-0.0205078
		l-1.2998047-3.1523438h-0.0029297v3.1337891c0,0.0107422-0.0024414,0.0205078-0.0078125,0.0292969
		c-0.0053711,0.0097656-0.0146484,0.0166016-0.0283203,0.0214844c-0.0131836,0.0058594-0.0302734,0.0107422-0.0507813,0.0136719
		c-0.0205078,0.0039063-0.0478516,0.0058594-0.0820313,0.0058594c-0.0302734,0-0.0561523-0.0019531-0.0766602-0.0058594
		c-0.0205078-0.0029297-0.0371094-0.0078125-0.0493164-0.0136719c-0.0126953-0.0048828-0.0214844-0.0117188-0.0258789-0.0214844
		c-0.0043945-0.0087891-0.0063477-0.0185547-0.0063477-0.0292969V5.6992188c0-0.0644531,0.0166016-0.1083984,0.0507813-0.1328125
		s0.0673828-0.0361328,0.0996094-0.0361328h0.1767578c0.0449219,0,0.0844727,0.0048828,0.1181641,0.0146484
		c0.0341797,0.0097656,0.0644531,0.0244141,0.090332,0.0429688s0.0478516,0.0410156,0.065918,0.0683594
		c0.0175781,0.0263672,0.0336914,0.0576172,0.0478516,0.0908203l1.1469727,2.7607422h0.0131836l1.1953125-2.75
		c0.0180664-0.0429688,0.0371094-0.0791016,0.0576172-0.1083984s0.0419922-0.0527344,0.0644531-0.0712891
		c0.0224609-0.0175781,0.046875-0.0302734,0.0727539-0.0371094c0.0258789-0.0078125,0.0541992-0.0107422,0.0844727-0.0107422
		h0.1962891c0.015625,0,0.0327148,0.0019531,0.0507813,0.0078125c0.0180664,0.0048828,0.0341797,0.0146484,0.0483398,0.0283203
		s0.0263672,0.0302734,0.0361328,0.0517578s0.0151367,0.0488281,0.0151367,0.0810547V8.9511719z"/>
	<path fill="#FFFFFF" d="M48.9775391,8.8945313c0.0107422,0.0273438,0.015625,0.0488281,0.0146484,0.0664063
		C48.9912109,8.9775391,48.9853516,8.9912109,48.9736328,9s-0.0297852,0.0146484-0.0537109,0.0175781
		c-0.0244141,0.0019531-0.0551758,0.0039063-0.0927734,0.0039063s-0.0673828-0.0019531-0.0898438-0.0039063
		c-0.0224609-0.0029297-0.0400391-0.0068359-0.0527344-0.0126953C48.6723633,9,48.6630859,8.9921875,48.6567383,8.9833984
		s-0.012207-0.0195313-0.0175781-0.0322266l-0.3330078-0.9267578h-1.5253906l-0.3198242,0.921875
		c-0.003418,0.0126953-0.0087891,0.0234375-0.015625,0.0322266c-0.0073242,0.0087891-0.0170898,0.0166016-0.0297852,0.0224609
		c-0.0126953,0.0068359-0.0297852,0.0117188-0.0522461,0.0146484C46.3408203,9.0195313,46.3125,9.0214844,46.2783203,9.0214844
		c-0.0371094,0-0.0688477-0.0019531-0.09375-0.0058594c-0.0249023-0.0029297-0.043457-0.0097656-0.0551758-0.0185547
		s-0.0175781-0.0214844-0.0185547-0.0380859c-0.0009766-0.015625,0.0039063-0.0371094,0.0146484-0.0644531l1.2163086-3.3056641
		c0.0058594-0.0136719,0.0136719-0.0263672,0.0244141-0.0361328s0.0244141-0.0175781,0.0415039-0.0224609
		c0.0170898-0.0058594,0.0375977-0.0097656,0.0620117-0.0126953c0.0239258-0.0019531,0.0512695-0.0039063,0.0820313-0.0039063
		c0.0322266,0,0.0600586,0.0019531,0.0844727,0.0039063c0.0239258,0.0029297,0.0444336,0.0068359,0.0615234,0.0126953
		c0.0170898,0.0048828,0.0307617,0.0126953,0.0405273,0.0224609s0.0175781,0.0224609,0.0224609,0.0361328L48.9775391,8.8945313z
		 M47.5351563,5.8818359h-0.0024414l-0.6552734,1.8691406h1.3295898L47.5351563,5.8818359z"/>
	<path fill="#FFFFFF" d="M52.1474609,8.8466797c0,0.0322266-0.0048828,0.0585938-0.0146484,0.0800781
		s-0.0224609,0.0390625-0.0375977,0.0527344s-0.0322266,0.0224609-0.0512695,0.0283203
		c-0.0185547,0.0048828-0.0361328,0.0078125-0.0522461,0.0078125h-0.0673828c-0.0356445,0-0.0683594-0.0039063-0.0976563-0.0136719
		c-0.0297852-0.0087891-0.0581055-0.0244141-0.0859375-0.046875s-0.0556641-0.0517578-0.0834961-0.0898438
		c-0.027832-0.0371094-0.0585938-0.0859375-0.0922852-0.1445313L50.340332,6.5507813
		c-0.0610352-0.1054688-0.1225586-0.2148438-0.184082-0.3261719c-0.0620117-0.1123047-0.1206055-0.2207031-0.1762695-0.3271484
		h-0.0024414c0.0019531,0.1308594,0.0024414,0.2646484,0.0024414,0.4023438c0,0.1367188,0,0.2705078,0,0.4013672v2.25
		c0,0.0107422-0.0024414,0.0205078-0.0078125,0.0292969c-0.0053711,0.0097656-0.0141602,0.0166016-0.0268555,0.0214844
		c-0.0126953,0.0058594-0.0292969,0.0107422-0.0498047,0.0136719C49.875,9.0195313,49.8486328,9.0214844,49.8164063,9.0214844
		c-0.0302734,0-0.0561523-0.0019531-0.0776367-0.0058594C49.7172852,9.0126953,49.7001953,9.0078125,49.6875,9.0019531
		c-0.0126953-0.0048828-0.0214844-0.0117188-0.0268555-0.0214844c-0.0053711-0.0087891-0.0078125-0.0185547-0.0078125-0.0292969
		V5.6992188c0-0.0644531,0.0166016-0.1083984,0.0507813-0.1328125s0.0673828-0.0361328,0.0996094-0.0361328h0.1337891
		c0.0429688,0,0.0791016,0.0029297,0.1074219,0.0107422c0.0288086,0.0068359,0.0546875,0.0185547,0.078125,0.0361328
		C50.1459961,5.59375,50.168457,5.6181641,50.190918,5.6494141s0.046875,0.0712891,0.0742188,0.1191406l0.9370117,1.6630859
		c0.059082,0.1035156,0.1152344,0.203125,0.1679688,0.2988281s0.1040039,0.1904297,0.1542969,0.2822266
		c0.050293,0.0927734,0.0996094,0.1835938,0.1489258,0.2724609C51.7226563,8.375,51.7714844,8.4648438,51.8198242,8.5566406
		h0.0029297C51.8208008,8.40625,51.8198242,8.25,51.8198242,8.0869141s0-0.3203125,0-0.4707031V5.5947266
		c0-0.0107422,0.0029297-0.0205078,0.0078125-0.0302734c0.0058594-0.0087891,0.0146484-0.015625,0.0273438-0.0224609
		c0.012207-0.0058594,0.0288086-0.0107422,0.0493164-0.0136719c0.0205078-0.0019531,0.0473633-0.0039063,0.0795898-0.0039063
		c0.0283203,0,0.0537109,0.0019531,0.0751953,0.0039063c0.0214844,0.0029297,0.0380859,0.0078125,0.0507813,0.0136719
		c0.0126953,0.0068359,0.0219727,0.0136719,0.0283203,0.0224609c0.0063477,0.0097656,0.0092773,0.0195313,0.0092773,0.0302734
		V8.8466797z"/>
	<path fill="#FFFFFF" d="M53.5341797,8.9511719c0,0.0107422-0.0024414,0.0205078-0.0078125,0.0292969
		c-0.0053711,0.0097656-0.0141602,0.0166016-0.0268555,0.0214844c-0.0126953,0.0058594-0.0292969,0.0107422-0.0498047,0.0136719
		c-0.0205078,0.0039063-0.046875,0.0058594-0.0791016,0.0058594c-0.0302734,0-0.0561523-0.0019531-0.0776367-0.0058594
		c-0.0214844-0.0029297-0.0385742-0.0078125-0.0512695-0.0136719c-0.0126953-0.0048828-0.0214844-0.0117188-0.0268555-0.0214844
		c-0.0053711-0.0087891-0.0078125-0.0185547-0.0078125-0.0292969V5.5839844c0-0.0107422,0.0029297-0.0205078,0.0092773-0.0302734
		c0.0063477-0.0087891,0.0161133-0.015625,0.0292969-0.0214844c0.0136719-0.0048828,0.0307617-0.0097656,0.0512695-0.0126953
		c0.0205078-0.0039063,0.0449219-0.0058594,0.0737305-0.0058594c0.0322266,0,0.0585938,0.0019531,0.0791016,0.0058594
		c0.0205078,0.0029297,0.0371094,0.0078125,0.0498047,0.0126953c0.0126953,0.0058594,0.0214844,0.0126953,0.0268555,0.0214844
		c0.0053711,0.0097656,0.0078125,0.0195313,0.0078125,0.0302734V8.9511719z"/>
	<path fill="#FFFFFF" d="M57.0615234,8.8945313c0.0107422,0.0273438,0.015625,0.0488281,0.0146484,0.0664063
		C57.0751953,8.9775391,57.0693359,8.9912109,57.0576172,9s-0.0297852,0.0146484-0.0537109,0.0175781
		c-0.0244141,0.0019531-0.0551758,0.0039063-0.0927734,0.0039063S56.84375,9.0195313,56.8212891,9.0175781
		c-0.0224609-0.0029297-0.0400391-0.0068359-0.0527344-0.0126953C56.7563477,9,56.7470703,8.9921875,56.7407227,8.9833984
		s-0.012207-0.0195313-0.0175781-0.0322266l-0.3330078-0.9267578h-1.5253906l-0.3198242,0.921875
		c-0.003418,0.0126953-0.0087891,0.0234375-0.015625,0.0322266c-0.0073242,0.0087891-0.0170898,0.0166016-0.0297852,0.0224609
		c-0.0126953,0.0068359-0.0297852,0.0117188-0.0522461,0.0146484c-0.0224609,0.0039063-0.0507813,0.0058594-0.0849609,0.0058594
		c-0.0371094,0-0.0688477-0.0019531-0.09375-0.0058594c-0.0249023-0.0029297-0.043457-0.0097656-0.0551758-0.0185547
		s-0.0175781-0.0214844-0.0185547-0.0380859c-0.0009766-0.015625,0.0039063-0.0371094,0.0146484-0.0644531l1.2163086-3.3056641
		c0.0058594-0.0136719,0.0136719-0.0263672,0.0244141-0.0361328s0.0244141-0.0175781,0.0415039-0.0224609
		c0.0170898-0.0058594,0.0375977-0.0097656,0.0620117-0.0126953c0.0239258-0.0019531,0.0512695-0.0039063,0.0820313-0.0039063
		c0.0322266,0,0.0600586,0.0019531,0.0844727,0.0039063c0.0239258,0.0029297,0.0444336,0.0068359,0.0615234,0.0126953
		c0.0170898,0.0048828,0.0307617,0.0126953,0.0405273,0.0224609s0.0175781,0.0224609,0.0224609,0.0361328L57.0615234,8.8945313z
		 M55.6191406,5.8818359h-0.0024414l-0.6552734,1.8691406h1.3295898L55.6191406,5.8818359z"/>
</g>
</svg>
